<svg xmlns="http://www.w3.org/2000/svg" viewBox="0 0 400 800">
  <defs>
    <!-- Skin gradient - pale, scholarly -->
    <linearGradient id="mach_skin" x1="0%" y1="0%" x2="100%" y2="100%">
      <stop offset="0%" style="stop-color:#e8d4c4"/>
      <stop offset="100%" style="stop-color:#d4bca8"/>
    </linearGradient>
    <!-- Hair gradient - dark -->
    <linearGradient id="mach_hair" x1="0%" y1="0%" x2="0%" y2="100%">
      <stop offset="0%" style="stop-color:#2a1f14"/>
      <stop offset="100%" style="stop-color:#1a1208"/>
    </linearGradient>
    <!-- Robe - dark scholarly black -->
    <linearGradient id="mach_robe" x1="0%" y1="0%" x2="100%" y2="100%">
      <stop offset="0%" style="stop-color:#2f2f2f"/>
      <stop offset="100%" style="stop-color:#1a1a1a"/>
    </linearGradient>
    <!-- Inner doublet - dark red -->
    <linearGradient id="mach_doublet" x1="0%" y1="0%" x2="100%" y2="100%">
      <stop offset="0%" style="stop-color:#5c2e2e"/>
      <stop offset="100%" style="stop-color:#3d1e1e"/>
    </linearGradient>
    <!-- Shirt -->
    <linearGradient id="mach_shirt" x1="0%" y1="0%" x2="100%" y2="100%">
      <stop offset="0%" style="stop-color:#f0ebe5"/>
      <stop offset="100%" style="stop-color:#ddd5ca"/>
    </linearGradient>
    <!-- Drop shadow filter -->
    <filter id="mach_shadow" x="-20%" y="-20%" width="140%" height="140%">
      <feDropShadow dx="2" dy="4" stdDeviation="3" flood-opacity="0.3"/>
    </filter>
  </defs>

  <g filter="url(#mach_shadow)">
    <!-- Outer robe -->
    <path d="M100 350 Q70 450 60 800 L340 800 Q330 450 300 350 Z"
          fill="url(#mach_robe)"/>

    <!-- Inner doublet visible -->
    <path d="M140 350 Q130 450 130 600 L270 600 Q270 450 260 350 Z"
          fill="url(#mach_doublet)"/>

    <!-- Doublet buttons -->
    <circle cx="200" cy="400" r="5" fill="#4a4a4a"/>
    <circle cx="200" cy="450" r="5" fill="#4a4a4a"/>
    <circle cx="200" cy="500" r="5" fill="#4a4a4a"/>
    <circle cx="200" cy="550" r="5" fill="#4a4a4a"/>

    <!-- Robe lapels -->
    <path d="M100 350 L140 350 L135 500 L95 500 Z" fill="#3a3a3a"/>
    <path d="M300 350 L260 350 L265 500 L305 500 Z" fill="#3a3a3a"/>

    <!-- Arms in robe sleeves -->
    <path d="M60 400 Q30 500 40 620 L80 620 Q60 500 90 420 Z"
          fill="url(#mach_robe)"/>
    <path d="M340 400 Q370 500 360 620 L320 620 Q340 500 310 420 Z"
          fill="url(#mach_robe)"/>

    <!-- Hands clasped -->
    <ellipse cx="200" cy="630" rx="50" ry="30" fill="url(#mach_skin)"/>
    <!-- Finger details -->
    <path d="M160 620 Q155 640 165 645" stroke="#c4a890" stroke-width="2" fill="none"/>
    <path d="M175 615 Q170 640 180 650" stroke="#c4a890" stroke-width="2" fill="none"/>
    <path d="M225 615 Q230 640 220 650" stroke="#c4a890" stroke-width="2" fill="none"/>
    <path d="M240 620 Q245 640 235 645" stroke="#c4a890" stroke-width="2" fill="none"/>

    <!-- Collar - simple white -->
    <path d="M155 350 Q200 370 245 350 L250 380 Q200 395 150 380 Z"
          fill="url(#mach_shirt)"/>

    <!-- Neck - thin -->
    <rect x="180" y="305" width="40" height="50" fill="url(#mach_skin)"/>

    <!-- Head shape - angular, sharp features -->
    <ellipse cx="200" cy="210" rx="65" ry="90" fill="url(#mach_skin)"/>

    <!-- Prominent cheekbones -->
    <path d="M140 220 Q150 210 160 220" fill="#d4bca8" opacity="0.5"/>
    <path d="M260 220 Q250 210 240 220" fill="#d4bca8" opacity="0.5"/>

    <!-- Hair - bowl cut style, dark -->
    <path d="M135 190 Q135 100 200 90 Q265 100 265 190 Q250 150 200 145 Q150 150 135 190"
          fill="url(#mach_hair)"/>
    <!-- Hair bangs -->
    <path d="M145 180 Q155 165 175 175 Q190 160 200 175 Q210 160 225 175 Q245 165 255 180"
          fill="url(#mach_hair)"/>

    <!-- Ears -->
    <ellipse cx="132" cy="210" rx="10" ry="20" fill="url(#mach_skin)"/>
    <ellipse cx="268" cy="210" rx="10" ry="20" fill="url(#mach_skin)"/>

    <!-- Eyebrows - sharp, angled -->
    <path d="M148 182 Q165 178 183 185" stroke="#2a1f14" stroke-width="2.5" fill="none"/>
    <path d="M217 185 Q235 178 252 182" stroke="#2a1f14" stroke-width="2.5" fill="none"/>

    <!-- Eyes - piercing, intelligent -->
    <ellipse cx="165" cy="200" rx="16" ry="11" fill="white"/>
    <ellipse cx="235" cy="200" rx="16" ry="11" fill="white"/>
    <!-- Irises - dark, intense -->
    <circle cx="167" cy="200" r="7" fill="#2a2a2a"/>
    <circle cx="237" cy="200" r="7" fill="#2a2a2a"/>
    <!-- Pupils -->
    <circle cx="167" cy="200" r="3.5" fill="#0a0a0a"/>
    <circle cx="237" cy="200" r="3.5" fill="#0a0a0a"/>
    <!-- Eye highlights -->
    <circle cx="169" cy="198" r="2" fill="white"/>
    <circle cx="239" cy="198" r="2" fill="white"/>
    <!-- Heavy lids -->
    <path d="M149 197 Q165 193 181 197" stroke="#c4a890" stroke-width="2" fill="none"/>
    <path d="M219 197 Q235 193 251 197" stroke="#c4a890" stroke-width="2" fill="none"/>

    <!-- Nose - prominent, aquiline -->
    <path d="M200 195 L203 230 Q205 250 195 260 Q200 263 205 260 Q210 250 207 235 L200 195"
          fill="#d4bca8" stroke="#c4a890" stroke-width="1"/>
    <!-- Nose bridge highlight -->
    <line x1="200" y1="195" x2="200" y2="225" stroke="#e8d4c4" stroke-width="2" opacity="0.5"/>

    <!-- Mouth - thin, knowing -->
    <path d="M178 275 Q200 278 222 275" stroke="#8b6b5a" stroke-width="2" fill="none"/>
    <!-- Slight smirk -->
    <path d="M222 275 Q226 273 228 276" stroke="#8b6b5a" stroke-width="1.5" fill="none"/>

    <!-- Chin - pointed -->
    <path d="M185 295 Q200 315 215 295" fill="url(#mach_skin)"/>

    <!-- Subtle 5 o'clock shadow -->
    <ellipse cx="200" cy="280" rx="35" ry="25" fill="#c4a890" opacity="0.15"/>

    <!-- Cap - Florentine style, simple -->
    <ellipse cx="200" cy="120" rx="72" ry="25" fill="url(#mach_robe)"/>
    <ellipse cx="200" cy="115" rx="62" ry="20" fill="#2a2a2a"/>
    <!-- Cap fold -->
    <path d="M140 120 Q200 135 260 120" stroke="#3a3a3a" stroke-width="2" fill="none"/>

    <!-- Deep-set eye shadows -->
    <ellipse cx="165" cy="195" rx="20" ry="8" fill="#c4a890" opacity="0.3"/>
    <ellipse cx="235" cy="195" rx="20" ry="8" fill="#c4a890" opacity="0.3"/>

    <!-- Nasolabial lines -->
    <path d="M175 250 Q172 265 175 275" stroke="#c4a890" stroke-width="1" fill="none" opacity="0.6"/>
    <path d="M225 250 Q228 265 225 275" stroke="#c4a890" stroke-width="1" fill="none" opacity="0.6"/>
  </g>
</svg>