<svg xmlns="http://www.w3.org/2000/svg" viewBox="0 0 400 800">
  <defs>
    <linearGradient id="bramante_skin" x1="0%" y1="0%" x2="100%" y2="100%">
      <stop offset="0%" style="stop-color:#e0c8b0"/>
      <stop offset="100%" style="stop-color:#c8a888"/>
    </linearGradient>
    <linearGradient id="bramante_hair" x1="0%" y1="0%" x2="0%" y2="100%">
      <stop offset="0%" style="stop-color:#d8d8d8"/>
      <stop offset="100%" style="stop-color:#a0a0a0"/>
    </linearGradient>
    <linearGradient id="bramante_robe" x1="0%" y1="0%" x2="100%" y2="100%">
      <stop offset="0%" style="stop-color:#3d3530"/>
      <stop offset="100%" style="stop-color:#2a2420"/>
    </linearGradient>
    <linearGradient id="bramante_vest" x1="0%" y1="0%" x2="100%" y2="100%">
      <stop offset="0%" style="stop-color:#6b3a3a"/>
      <stop offset="100%" style="stop-color:#4a2828"/>
    </linearGradient>
    <linearGradient id="bramante_shirt" x1="0%" y1="0%" x2="100%" y2="100%">
      <stop offset="0%" style="stop-color:#f5efe8"/>
      <stop offset="100%" style="stop-color:#e0d8cc"/>
    </linearGradient>
    <filter id="bramante_shadow" x="-20%" y="-20%" width="140%" height="140%">
      <feDropShadow dx="2" dy="4" stdDeviation="3" flood-opacity="0.3"/>
    </filter>
  </defs>

  <g filter="url(#bramante_shadow)">
    <!-- Body unchanged -->
    <path d="M95 360 Q65 480 60 800 L340 800 Q335 480 305 360 Z" fill="url(#bramante_robe)"/>
    <path d="M135 360 L130 650 L270 650 L265 360 Z" fill="url(#bramante_vest)"/>
    <circle cx="200" cy="420" r="5" fill="#8b7355"/>
    <circle cx="200" cy="480" r="5" fill="#8b7355"/>
    <circle cx="200" cy="540" r="5" fill="#8b7355"/>
    <circle cx="200" cy="600" r="5" fill="#8b7355"/>
    <path d="M95 360 L135 360 L130 650 L85 650 Z" fill="#4a4038"/>
    <path d="M305 360 L265 360 L270 650 L315 650 Z" fill="#4a4038"/>
    <path d="M60 400 Q30 500 45 620 L85 620 Q55 510 95 420 Z" fill="url(#bramante_robe)"/>
    <path d="M340 400 Q370 500 355 620 L315 620 Q345 510 305 420 Z" fill="url(#bramante_robe)"/>
    <ellipse cx="55" cy="640" rx="22" ry="28" fill="url(#bramante_skin)"/>
    <ellipse cx="345" cy="640" rx="22" ry="28" fill="url(#bramante_skin)"/>
    <rect x="320" y="600" width="50" height="12" fill="#f5deb3" rx="6"/>
    <ellipse cx="320" cy="606" rx="6" ry="6" fill="#e8d4b8"/>
    <ellipse cx="370" cy="606" rx="6" ry="6" fill="#e8d4b8"/>
    <line x1="328" y1="604" x2="362" y2="604" stroke="#8b7355" stroke-width="0.5"/>
    <line x1="328" y1="608" x2="358" y2="608" stroke="#8b7355" stroke-width="0.5"/>
    <path d="M35 615 L55 665 M35 615 L50 670" stroke="#5a5a5a" stroke-width="3"/>
    <circle cx="35" cy="612" r="6" fill="#ffd700"/>
    <path d="M155 360 Q200 380 245 360 L250 395 Q200 410 150 395 Z" fill="url(#bramante_shirt)"/>
    <rect x="178" y="310" width="44" height="55" fill="url(#bramante_skin)"/>
    <ellipse cx="200" cy="215" rx="70" ry="92" fill="url(#bramante_skin)"/>
    <ellipse cx="200" cy="160" rx="60" ry="40" fill="url(#bramante_skin)"/>
    <path d="M130 200 Q120 180 125 240 Q135 200 145 210 Z" fill="url(#bramante_hair)"/>
    <path d="M270 200 Q280 180 275 240 Q265 200 255 210 Z" fill="url(#bramante_hair)"/>
    <path d="M135 230 Q130 260 140 290" stroke="url(#bramante_hair)" stroke-width="8" fill="none"/>
    <path d="M265 230 Q270 260 260 290" stroke="url(#bramante_hair)" stroke-width="8" fill="none"/>
    <ellipse cx="128" cy="220" rx="14" ry="24" fill="url(#bramante_skin)"/>
    <ellipse cx="272" cy="220" rx="14" ry="24" fill="url(#bramante_skin)"/>
    <path d="M125 210 Q120 220 125 235" stroke="#c4a888" stroke-width="2" fill="none"/>
    <path d="M275 210 Q280 220 275 235" stroke="#c4a888" stroke-width="2" fill="none"/>

    <!-- IMPRESSED EXPRESSION -->
    <!-- Eyebrows - raised high -->
    <path d="M145 178 Q163 172 183 180" stroke="#c8c8c8" stroke-width="4" fill="none"/>
    <path d="M217 180 Q237 172 255 178" stroke="#c8c8c8" stroke-width="4" fill="none"/>

    <!-- Eyes - wide open, bright -->
    <ellipse cx="164" cy="208" rx="18" ry="14" fill="white"/>
    <ellipse cx="236" cy="208" rx="18" ry="14" fill="white"/>
    <circle cx="164" cy="208" r="8" fill="#6b5a4a"/>
    <circle cx="236" cy="208" r="8" fill="#6b5a4a"/>
    <circle cx="164" cy="208" r="4" fill="#1a1a1a"/>
    <circle cx="236" cy="208" r="4" fill="#1a1a1a"/>
    <circle cx="166" cy="205" r="2.5" fill="white"/>
    <circle cx="238" cy="205" r="2.5" fill="white"/>
    <path d="M150 215 Q164 220 178 215" stroke="#c4a888" stroke-width="1" fill="none" opacity="0.5"/>
    <path d="M222 215 Q236 220 250 215" stroke="#c4a888" stroke-width="1" fill="none" opacity="0.5"/>

    <!-- Nose unchanged -->
    <path d="M200 200 L200 248 Q194 260 186 265 Q200 270 214 265 Q206 260 200 248" fill="#c8a888" stroke="#b89878" stroke-width="1"/>

    <!-- Mouth - slightly open in pleasant surprise -->
    <path d="M175 280 Q200 290 225 280" stroke="#8b6b5a" stroke-width="2.5" fill="none"/>
    <ellipse cx="200" cy="285" rx="12" ry="5" fill="#7a5a4a" opacity="0.5"/>

    <!-- Beard unchanged -->
    <path d="M140 270 Q145 330 200 350 Q255 330 260 270" fill="url(#bramante_hair)"/>
    <path d="M155 290 L160 320" stroke="#b0b0b0" stroke-width="1"/>
    <path d="M175 295 L178 330" stroke="#b0b0b0" stroke-width="1"/>
    <path d="M195 298 L198 340" stroke="#b0b0b0" stroke-width="1"/>
    <path d="M215 298 L212 340" stroke="#b0b0b0" stroke-width="1"/>
    <path d="M235 295 L232 330" stroke="#b0b0b0" stroke-width="1"/>
    <path d="M250 290 L245 320" stroke="#b0b0b0" stroke-width="1"/>
    <path d="M170 270 Q185 278 200 275 Q215 278 230 270" fill="url(#bramante_hair)"/>

    <!-- Forehead wrinkles -->
    <path d="M155 165 Q200 158 245 165" stroke="#c4a888" stroke-width="1" fill="none" opacity="0.5"/>
    <path d="M160 175 Q200 170 240 175" stroke="#c4a888" stroke-width="1" fill="none" opacity="0.5"/>

    <ellipse cx="200" cy="130" rx="65" ry="20" fill="url(#bramante_robe)"/>
    <ellipse cx="200" cy="125" rx="55" ry="15" fill="#4a4038"/>
  </g>
</svg>
